# xmcd
#
# Track frame offsets: 
#        150
#        13775
#        27935
#        41325
#        55027
#        67537
#        80280
#        94092
#        107062
#        121732
#
# Disc length: 1788 seconds
#
# Revision: 3
# Processed by: cddbd v1.5.2PL0 Copyright (c) Steve Scherf et al.
# Submitted via: ExactAudioCopy v0.95b4
#
DISCID=6906fa0a
DTITLE=Terri Gibbs - The Best Of Terri Gibbs
DYEAR=1996
DGENRE=Country
TTITLE0=Somebody's Knockin'
TTITLE1=Rich Man
TTITLE2=I Wanna Be Around
TTITLE3=Go Somewhere And Hide
TTITLE4=Misr'y River
TTITLE5=Ashes To Ashes
TTITLE6=Some Days It Rains All Night Long
TTITLE7=Baby I'm Gone
TTITLE8=Anybody Else's Heart But Mine
TTITLE9=Tell Mama
EXTD=
EXTT0=
EXTT1=
EXTT2=
EXTT3=
EXTT4=
EXTT5=
EXTT6=
EXTT7=
EXTT8=
EXTT9=
PLAYORDER=
